<svg height="200px" width="200px" version="1.1" id="Capa_1" xmlns="http://www.w3.org/2000/svg" xmlns:xlink="http://www.w3.org/1999/xlink" viewBox="0 0 187.435 187.435" xml:space="preserve" fill="#000000" stroke="#000000" stroke-width="0.0018743499999999999"><g id="SVGRepo_bgCarrier" stroke-width="0"></g><g id="SVGRepo_tracerCarrier" stroke-linecap="round" stroke-linejoin="round"></g><g id="SVGRepo_iconCarrier"> <g> <path style="fill:#2A59FE;" d="M187.435,178.179c0,5.112-4.144,9.256-9.256,9.256H9.256c-5.112,0-9.256-4.143-9.256-9.256V9.256 C0,4.144,4.144,0,9.256,0h168.923c5.112,0,9.256,4.144,9.256,9.256V178.179z"></path> <path style="fill:#1E3A8A;" d="M187.435,177.925V27.96l-25.26-6.303l-29.757,17.754l-3.515,22.627l-16.523,83.258l-63.467,2.088 l-5.484,19.75l43.166,20.048h91.584C183.291,187.182,187.435,183.037,187.435,177.925z"></path> <g> <g> <g> <path style="fill:#fff;" d="M28.533,72.168c26.846,0,53.692,0,80.539,0c5.62,0,11.242,0,16.861,0 c5.217,0,5.217-8.104,0-8.104c-26.846,0-53.693,0-80.539,0c-5.622,0-11.242,0-16.862,0 C23.318,64.064,23.318,72.168,28.533,72.168L28.533,72.168z"></path> </g> </g> <path style="fill:#fff;" d="M127.422,37.688c-4.276,26.105-8.553,52.209-12.827,78.314c-0.124,0.755-0.248,1.51-0.371,2.265 c-25.479,0-50.959,0-76.438,0c-0.682,0-1.364,0-2.047,0c-1-16.776-2-33.554-3-50.33c-0.309-5.191-8.414-5.223-8.102,0 c1.08,18.128,2.161,36.255,3.241,54.382c0.131,2.205,1.744,4.053,4.051,4.053c26.62,0,53.239,0,79.857,0c1.952,0,3.906,0,5.857,0 c1.657,0,3.621-1.222,3.907-2.975c4.275-26.105,8.552-52.21,12.827-78.315c0.285-1.746,0.572-3.494,0.857-5.239 C136.073,34.731,128.265,32.54,127.422,37.688z"></path> <g> <path style="fill:#fff;" d="M134.052,41.452c4.756-2.521,9.512-5.042,14.268-7.563c4.618-2.448,0.524-9.441-4.089-6.996 c-4.757,2.519-9.513,5.042-14.269,7.563C125.343,36.903,129.438,43.898,134.052,41.452L134.052,41.452z"></path> </g> <path style="fill:#fff;" d="M162.175,21.911c1.46,2.855,0.33,6.354-2.527,7.814l-13.313,6.81 c-2.855,1.46-6.355,0.33-7.814-2.525l0,0c-1.461-2.855-0.329-6.354,2.525-7.815l13.316-6.81 C157.216,17.925,160.714,19.056,162.175,21.911L162.175,21.911z"></path> <g> <path style="fill:#fff;" d="M114.006,120.071c-1.98,8.284-3.96,16.567-5.942,24.851c1.303-0.991,2.604-1.983,3.907-2.975 c-24.039,0-48.076,0-72.114,0c-0.001,0-0.003,0-0.006,0c-5.225,0-5.225,8.104,0,8.104c24.039,0,48.076,0,72.115,0 c0.002,0,0.003,0,0.005,0c1.756,0,3.489-1.23,3.907-2.976c1.982-8.283,3.961-16.566,5.942-24.85 C123.034,117.146,115.22,114.99,114.006,120.071L114.006,120.071z"></path> </g> <g> <circle style="fill:#fff;" cx="48.914" cy="158.163" r="10.525"></circle> <circle style="fill:#fff;" cx="48.914" cy="158.163" r="5.916"></circle> </g> <g> <circle style="fill:#fff;" cx="101.855" cy="158.163" r="10.525"></circle> <circle style="fill:#fff;" cx="101.855" cy="158.163" r="5.916"></circle> </g> <g> <path style="fill:#fff;" d="M40.146,68.116c0,17.678,0,35.355,0,53.032c0,3.483,5.402,3.483,5.402,0 c0-17.677,0-35.354,0-53.032C45.547,64.632,40.146,64.632,40.146,68.116L40.146,68.116z"></path> </g> <g> <path style="fill:#fff;" d="M56.352,68.116c0,17.678,0,35.355,0,53.032c0,3.483,5.403,3.483,5.403,0 c0-17.677,0-35.354,0-53.032C61.755,64.632,56.352,64.632,56.352,68.116L56.352,68.116z"></path> </g> <g> <path style="fill:#fff;" d="M72.559,68.116c0,17.678,0,35.355,0,53.032c0,3.483,5.402,3.483,5.402,0 c0-17.677,0-35.354,0-53.032C77.961,64.632,72.559,64.632,72.559,68.116L72.559,68.116z"></path> </g> <g> <path style="fill:#fff;" d="M88.765,68.116c0,17.678,0,35.355,0,53.032c0,3.483,5.403,3.483,5.403,0 c0-17.677,0-35.354,0-53.032C94.168,64.632,88.765,64.632,88.765,68.116L88.765,68.116z"></path> </g> <g> <path style="fill:#fff;" d="M104.973,68.116c0,17.678,0,35.355,0,53.032c0,3.483,5.401,3.483,5.401,0 c0-17.677,0-35.354,0-53.032C110.374,64.632,104.973,64.632,104.973,68.116L104.973,68.116z"></path> </g> <g> <path style="fill:#fff;" d="M32.362,89.204c29.44,0,58.881,0,88.322,0c5.803,0,5.803-5.402,0-5.402 c-29.44,0-58.882,0-88.322,0C26.56,83.802,26.56,89.204,32.362,89.204L32.362,89.204z"></path> </g> <g> <path style="fill:#fff;" d="M32.362,105.411c29.44,0,58.881,0,88.322,0c5.803,0,5.803-5.403,0-5.403 c-29.44,0-58.882,0-88.322,0C26.56,100.008,26.56,105.411,32.362,105.411L32.362,105.411z"></path> </g> </g> </g> </g></svg>